<?xml version="1.0" encoding="iso-8859-1"?>
<!-- Generator: Adobe Illustrator 19.0.0, SVG Export Plug-In . SVG Version: 6.00 Build 0)  -->
<svg version="1.1" id="Capa_1" xmlns="http://www.w3.org/2000/svg" xmlns:xlink="http://www.w3.org/1999/xlink" x="0px" y="0px"
	 viewBox="0 0 512.001 512.001" style="enable-background:new 0 0 512.001 512.001;" xml:space="preserve">
<path style="fill:#444443;" d="M399.565,204.924H109.012c-4.95,0-9-4.05-9-9l0,0c0-4.95,4.05-9,9-9h290.553c4.95,0,9,4.05,9,9l0,0
	C408.565,200.874,404.515,204.924,399.565,204.924z"/>
<path style="fill:#EFEFEF;" d="M460.549,197.451c-2.357-0.485-406.728-0.35-408.43,0c-5.613,1.157-9.796,6.151-9.796,12.008
	c0.022,285.477-0.058,273.509,0.064,274.688c0.631,6.164,5.876,11.009,12.194,11.009c1.76,0.001,403.816,0.193,405.967-0.25
	c5.591-1.152,9.796-6.127,9.796-12.008V209.459C470.344,203.58,466.141,198.603,460.549,197.451z"/>
<path style="fill:#DDDDDD;" d="M67.828,482.897c0.022-285.477-0.058-273.51,0.064-274.688c0.63-6.152,5.865-11.009,12.194-11.009
	c-26.764,0.085-25.824-0.191-27.968,0.25c-5.613,1.157-9.796,6.15-9.796,12.008c0.022,285.477-0.058,273.511,0.064,274.688
	c0.631,6.164,5.876,11.009,12.194,11.009h25.506C73.338,495.155,67.828,489.632,67.828,482.897z"/>
<path style="fill:#666666;" d="M490.701,16.801H21.3c-8.834,0-15.398,8.207-13.452,16.828l34.507,152.818
	c1.42,6.288,7.006,10.753,13.452,10.753h52.333c2.04-3.655,5.941-6.129,10.424-6.129c13.68,0,264.114,0,274.873,0
	c4.483,0,8.384,2.474,10.424,6.129h52.333c6.446,0,12.032-4.465,13.452-10.753l34.507-152.818
	C506.098,25.013,499.539,16.801,490.701,16.801z"/>
<path style="fill:#535454;" d="M70.606,186.448L36.099,33.629c-1.945-8.617,4.614-16.828,13.452-16.828H21.3
	c-8.834,0-15.398,8.207-13.452,16.828l34.507,152.818c1.42,6.288,7.006,10.753,13.452,10.753h28.251
	C77.612,197.201,72.026,192.735,70.606,186.448z"/>
<path style="fill:#EFEFEF;" d="M75.329,255.976c0,78.64,0,27.444,0,107.96c9.737,0,89.095,0,98.73,0l0,0c65.91,0,216.815,0,263.28,0
	c0-33.167,0-71.976,0-107.96C399.213,255.976,123.251,255.976,75.329,255.976z"/>
<path style="fill:#DDDDDD;" d="M100.696,255.976H98.39l0,0c-3.488,0-7.707,0-11.531,0l0,0c-3.488,0-7.707,0-11.531,0l0,0
	c0,78.64,0,27.444,0,107.96c8.034,0,17.843,0,25.368,0C100.696,353.828,100.696,268.269,100.696,255.976L100.696,255.976z"/>
<path style="fill:#B6ADF7;" d="M108.239,229.175h-32.91v26.802c49.851,0,312.763,0,362.01,0v-26.802
	C338.076,229.175,207.554,229.175,108.239,229.175z"/>
<path style="fill:#A695F4;" d="M75.329,229.175v26.802c9.015,0,16.39,0,25.41,0v-26.802
	C91.722,229.175,84.348,229.175,75.329,229.175z"/>
<path style="fill:#8970E5;" d="M191.46,229.175v26.802c16.523,0,111.953,0,125.656,0v-26.802
	C303.176,229.175,208.11,229.175,191.46,229.175z"/>
<path style="fill:#CCCCCC;" d="M172.306,388.549h-12.182c-3.025,0-5.477,2.452-5.477,5.477v101.13c8.521,0,188.336,0,202.707,0
	v-101.78c0-2.666-2.161-4.827-4.827-4.827C346.136,388.549,179.265,388.549,172.306,388.549z"/>
<path style="fill:#BABABA;" d="M190.125,388.549h-17.819h-12.182c-3.025,0-5.477,2.452-5.477,5.477v101.13
	c10.369,0,18.963,0,30.001,0v-101.13C184.648,391.001,187.1,388.549,190.125,388.549z"/>
<path style="fill:#A4D9F4;" d="M441.034,169.619H70.968c-2.419,0-4.515-1.675-5.047-4.035L39.978,50.697
	c-0.731-3.236,1.73-6.314,5.047-6.314h421.951c3.318,0,5.778,3.078,5.047,6.314l-25.942,114.887
	C445.548,167.943,443.452,169.619,441.034,169.619z"/>
<path style="fill:#7CC9E8;" d="M95.92,165.584L69.979,50.697c-0.731-3.236,1.73-6.314,5.047-6.314H45.025
	c-3.318,0-5.778,3.078-5.047,6.314l25.942,114.887c0.533,2.359,2.629,4.035,5.047,4.035h30.001
	C98.549,169.619,96.453,167.943,95.92,165.584z"/>
<path style="fill:#70B5E8;" d="M472.024,50.697c0.73-3.235-1.729-6.313-5.045-6.314H45.023c-3.316,0.001-5.776,3.078-5.045,6.314
	l4.98,22.058h422.085L472.024,50.697z"/>
<path style="fill:#52A5D8;" d="M74.959,72.754l-4.98-22.058c-0.731-3.236,1.729-6.313,5.046-6.314
	c-32.638,0.007-30.561-0.139-31.806,0.325c-2.334,0.868-3.831,3.374-3.241,5.989c0.706,3.124,4.277,18.943,4.98,22.058H74.959z"/>
<path d="M511.469,35.302c3.01-13.328-7.128-25.98-20.768-25.98H21.299c-13.665,0-23.772,12.679-20.768,25.982
	c37.316,161.682,33.093,154.492,38.665,161.464c-2.522,2.98-4.194,6.684-4.605,10.701c-0.196,1.899-0.066-12.369-0.103,216.905
	c0,4.143,3.357,7.5,7.5,7.5s7.5-3.357,7.5-7.5c0.008-224.753-0.022-214.937,0.024-215.378c0.209-2.044,1.766-3.762,3.785-4.178
	c0.927-0.191-15.313-0.096,350.562-0.096c57.59,0,54.138-0.049,54.841,0.096c2.15,0.443,3.81,2.374,3.81,4.662
	c-0.009,286.156,0.022,273.449-0.024,273.924c-0.243,2.379-2.293,4.273-4.733,4.273h-92.899v-91.775
	c0-8.178-6.653-14.831-14.831-14.831H161.511c-7.921,0-14.364,6.443-14.364,14.364v92.242c-99.008-0.034-92.962,0.086-93.85-0.097
	c-2.142-0.442-3.808-2.366-3.808-4.662v-23.544c0-4.143-3.357-7.5-7.5-7.5s-7.5,3.357-7.5,7.5
	c0.034,24.872-0.078,23.801,0.103,25.557c0.996,9.724,9.33,17.746,19.656,17.746c16.624,0,386.822,0,403.505,0
	c11.025,0,19.759-9.123,19.759-19.76c-0.036-291.404,0.092-273.561-0.103-275.45c-0.411-4.017-2.083-7.721-4.605-10.701
	c1.967-2.461,3.422-5.384,4.158-8.646L511.469,35.302z M349.853,487.677H162.147V396.07h187.706L349.853,487.677L349.853,487.677z
	 M462.33,184.815c-0.652,2.889-3.176,4.905-6.137,4.905h-48.598c-3.629-3.858-8.735-6.129-14.158-6.129H118.564
	c-5.422,0-10.528,2.271-14.158,6.129H55.807c-2.961,0-5.484-2.017-6.137-4.905C14.678,25.88,12.805,31.166,16.385,26.685
	c3.606-4.509-24.801-1.455,474.316-2.363c4.031,0,7.024,3.738,6.136,7.676L462.33,184.815z"/>
<path d="M470.521,37.424c-3.182-0.924-426.833-0.452-426.936-0.44c-7.428,0.835-12.599,7.97-10.924,15.385
	c2.54,11.252,23.402,103.636,25.942,114.886c1.313,5.819,6.396,9.884,12.363,9.884h370.067c5.964,0,11.048-4.064,12.362-9.882
	c3.046-13.491,23.47-103.94,25.942-114.889C480.807,45.87,477.009,39.308,470.521,37.424z M461.046,65.274h-55.573
	c-4.143,0-7.5,3.357-7.5,7.5c0,4.143,3.357,7.5,7.5,7.5h52.185l-18.486,81.864H72.827L54.341,80.275h316.132
	c4.143,0,7.5-3.357,7.5-7.5c0-4.143-3.357-7.5-7.5-7.5H50.954l-3.019-13.37h416.13L461.046,65.274z"/>
<path d="M123.648,236.696c4.143,0,7.5-3.357,7.5-7.5c0-4.143-3.357-7.5-7.5-7.5H82.069c-7.853,0-14.24,6.388-14.24,14.239
	c0,56.759,0,62.093,0,118.986c0,9.117,7.418,16.535,16.535,16.535c105.318,0,239.726,0,344.844,0c8.618,0,15.63-7.012,15.63-15.63
	c0-9.998,0-37.257,0-46.781c0-22.077,0-49.112,0-72.08c0-8.42-6.85-15.27-15.27-15.27H158.649c-4.143,0-7.5,3.357-7.5,7.5
	c0,4.143,3.357,7.5,7.5,7.5c282.737,0.126,271.189-0.265,271.189,0.27v11.531c-94.312,0-288.665,0-347.01,0v-11.8H123.648z
	 M100.738,356.457H84.364c-0.847,0-1.535-0.689-1.535-1.535V343.07h17.91V356.457z M133.648,356.457h-17.909V343.07h17.909V356.457z
	 M133.648,328.069c-16.149,0-34.67,0-50.819,0v-11.523h41.865h8.954V328.069z M166.558,356.457h-17.909V343.07h17.909V356.457z
	 M166.558,328.069h-17.909v-11.523h8.955h8.954V328.069z M331.109,356.457h-149.55V343.07c9.362,0,49.079,0,58.32,0h32.91h32.91
	h25.41v13.387H331.109z M181.559,328.069v-11.523h8.955h8.954v11.523H181.559z M214.468,328.069v-11.523h8.954h8.955v11.523H214.468
	z M247.379,328.069v-11.523h8.954h8.955v11.523H247.379z M280.289,328.069v-11.523h8.954h8.955v11.523H280.289z M331.109,328.069
	h-17.909v-11.523h8.954h8.955V328.069z M364.018,356.457h-17.908V343.07h17.908V356.457z M364.018,328.069h-17.908v-11.523h8.954
	h8.954L364.018,328.069L364.018,328.069z M396.927,356.457h-17.909V343.07h17.909V356.457z M429.208,356.457h-17.279V343.07h17.909
	C429.584,355.101,430.406,356.457,429.208,356.457z M429.838,328.069h-25.41h-25.41v-11.523h8.955h41.864V328.069z M429.838,301.546
	h-34.364v-11.523h34.364V301.546z M379.018,263.498h50.819v11.523c-17.544,0-40.776,0-50.819,0V263.498z M380.473,290.021v11.523
	h-8.955h-8.954v-11.523h8.954H380.473z M346.109,263.498h17.908v11.523c-6.263,0-11.645,0-17.908,0V263.498z M347.563,290.021
	v11.523h-8.954h-8.955v-11.523h8.955H347.563z M313.199,263.498h17.909v11.523c-6.264,0-11.646,0-17.909,0V263.498z
	 M314.653,290.021v11.523h-8.954h-8.955v-11.523h8.955H314.653z M280.289,263.498h17.909v11.523h-8.955h-8.954V263.498z
	 M281.743,290.021v11.523h-8.954h-8.955v-11.523h8.955H281.743z M247.379,263.498h17.91v11.523h-8.955h-8.954L247.379,263.498
	L247.379,263.498z M248.833,290.021v11.523h-8.954h-8.955v-11.523h8.955H248.833z M214.468,263.498h17.909v11.523
	c-6.264,0-11.646,0-17.909,0V263.498z M215.923,290.021v11.523h-8.954h-8.954v-11.523h8.954H215.923z M181.559,263.498h17.909
	v11.523c-6.263,0-11.646,0-17.909,0V263.498z M183.014,290.021v11.523h-8.955h-8.954v-11.523h8.954H183.014z M148.649,263.498
	h17.909v11.523c-6.263,0-11.646,0-17.909,0V263.498z M150.104,290.021v11.523h-8.955h-8.954v-11.523h8.954H150.104z
	 M115.739,263.498h17.909v11.523h-8.954h-8.955C115.739,275.021,115.739,263.498,115.739,263.498z M117.194,290.021v11.523H82.829
	v-11.523h25.41H117.194z M100.738,263.498v11.523h-17.91v-11.523H100.738z"/>
<g>
</g>
<g>
</g>
<g>
</g>
<g>
</g>
<g>
</g>
<g>
</g>
<g>
</g>
<g>
</g>
<g>
</g>
<g>
</g>
<g>
</g>
<g>
</g>
<g>
</g>
<g>
</g>
<g>
</g>
</svg>
