<svg id="Layer_1" enable-background="new 0 0 256 256" height="512" viewBox="0 0 256 256" width="512" xmlns="http://www.w3.org/2000/svg"><g><g><g><path d="m127.11 90.777-8.981 7.175-7.776-13.7c-8.764 3.138-19.012 9.66-24.437 23.226l-16.184 44.01h114.848l25.532-63.479h-20.338l-14.402 35.651-6.785-16.182c-5.413-13.529-15.62-20.052-24.368-23.201l-7.762 13.675-8.982-7.175z" fill="#63bce7"/></g></g><g><g><g><circle cx="97.572" cy="45.11" fill="#f8af23" r="6.369"/></g></g><g><g><circle cx="157.018" cy="45.11" fill="#f8af23" r="6.369"/></g></g></g><g><g><path d="m207.056 95.61-22.48 55.88h-8.44l22.48-55.88z" fill="#63e2e7"/></g></g><g><g><path d="m112.073 87.27c-6.84 3.8-13.64 10.02-17.71 20.21l-16.19 44.01h-8.44l16.19-44.01c5.42-13.57 15.67-20.09 24.43-23.23z" fill="#6377e7"/></g></g><g><g><path d="m189.795 88.009v-10.529h24.379 6.94s-.867 10.528-10.983 10.528h-20.336z" fill="#f8af23"/></g></g><g><g><path d="m221.114 77.48s-.86 10.53-10.98 10.53h-8.44c10.12 0 10.98-10.53 10.98-10.53z" fill="#f8d323"/></g></g><g><g><path d="m210.112 88.009h-20.338l-3.069 7.598h20.351.022z" fill="#f46275"/></g></g><g><g><path d="m210.112 88.01-3.03 7.6h-8.44l3.03-7.6z" fill="#f48875"/></g></g><g><g><g><path d="m130.889 107.026c0 2.09-1.695 3.785-3.783 3.785-2.09 0-3.785-1.695-3.785-3.785 0-2.089 1.695-3.784 3.785-3.784 2.088 0 3.783 1.696 3.783 3.784z" fill="#f8af23"/></g></g><g><g><path d="m130.889 123.245c0 2.091-1.695 3.784-3.783 3.784-2.09 0-3.785-1.693-3.785-3.784 0-2.092 1.695-3.785 3.785-3.785 2.088 0 3.783 1.693 3.783 3.785z" fill="#f8af23"/></g></g><g><g><path d="m130.889 139.461c0 2.09-1.695 3.785-3.783 3.785-2.09 0-3.785-1.695-3.785-3.785s1.695-3.783 3.785-3.783c2.088 0 3.783 1.694 3.783 3.783z" fill="#f8af23"/></g></g></g><g><g><path d="m36.872 151.488h182.257v9.355h-182.257z" fill="#f8af23"/></g></g><g><g><path d="m154.37 35.22v13.62c0 12.11-8.01 22.44-18.99 25.97-2.61.84-5.4 1.29-8.28 1.29-2.74 0-5.39-.41-7.89-1.18-11.18-3.4-19.37-13.83-19.37-26.08v-13.62c0-15 12.27-27.27 27.26-27.27 7.5 0 14.32 3.07 19.26 8.01s8.01 11.76 8.01 19.26z" fill="#f8af23"/></g></g><g><g><path d="m135.38 74.81v7.16l-7.904 8.807h-.366l-7.899-8.807v-7.05c2.5.77 5.15 1.18 7.89 1.18 2.879 0 5.669-.45 8.279-1.29z" fill="#f8af23"/></g></g><g><g><path d="m119.21 74.92v7.05l6.04 6.728v-12.667c-2.084-.142-4.108-.516-6.04-1.111z" fill="#f87023"/></g></g><g><g><path d="m97.33 220.451h-75.655c1.314-19.744 17.748-35.348 37.828-35.348s36.514 15.604 37.827 35.348z" fill="#63bce7"/></g></g><g><g><circle cx="59.503" cy="168.422" fill="#63bce7" r="16.681"/></g></g><g><g><path d="m63.723 185.344c-1.386-.153-2.793-.241-4.22-.241-20.08 0-36.514 15.604-37.828 35.348h8.44c1.22-18.34 15.491-33.1 33.608-35.107z" fill="#6377e7"/></g></g><g><g><path d="m55.283 185.344c1.386-.153 2.793-.241 4.22-.241 20.08 0 36.514 15.604 37.828 35.348h-8.44c-1.221-18.34-15.491-33.1-33.608-35.107z" fill="#63e2e7"/></g></g><g><g><path d="m51.262 168.422c0-7.752 5.295-14.25 12.461-16.121-1.35-.353-2.759-.56-4.22-.56-9.213 0-16.681 7.468-16.681 16.681s7.468 16.681 16.681 16.681c1.461 0 2.87-.207 4.22-.56-7.166-1.871-12.461-8.369-12.461-16.121z" fill="#6377e7"/></g></g><g><g><path d="m234.325 220.451h-75.655c1.314-19.744 17.748-35.348 37.828-35.348s36.513 15.604 37.827 35.348z" fill="#f8af23"/></g></g><g><g><circle cx="196.497" cy="168.422" fill="#f8af23" r="16.681"/></g></g><g><g><path d="m200.717 185.344c-1.386-.153-2.793-.241-4.22-.241-20.08 0-36.514 15.604-37.828 35.348h8.44c1.221-18.34 15.491-33.1 33.608-35.107z" fill="#f87023"/></g></g><g><g><path d="m192.277 185.344c1.386-.153 2.793-.241 4.22-.241 20.08 0 36.514 15.604 37.828 35.348h-8.44c-1.22-18.34-15.491-33.1-33.608-35.107z" fill="#f8d323"/></g></g><g><g><path d="m188.256 168.422c0-7.752 5.295-14.25 12.461-16.121-1.35-.353-2.759-.56-4.22-.56-9.213 0-16.681 7.468-16.681 16.681s7.468 16.681 16.681 16.681c1.461 0 2.87-.207 4.22-.56-7.165-1.871-12.461-8.369-12.461-16.121z" fill="#f87023"/></g></g><g><g><path d="m174.311 235.861h-92.622c1.608-24.172 21.728-43.276 46.311-43.276s44.703 19.104 46.311 43.276z" fill="#f46275"/></g></g><g><g><circle cx="128" cy="172.163" fill="#f46275" r="20.422"/></g></g><g><g><path d="m132.22 192.781c-1.391-.125-2.797-.196-4.22-.196-24.583 0-44.703 19.104-46.311 43.276h8.44c1.515-22.773 19.462-41.04 42.091-43.08z" fill="#f43075"/></g></g><g><g><path d="m123.78 192.781c1.391-.125 2.797-.196 4.22-.196 24.583 0 44.703 19.104 46.311 43.276h-8.44c-1.515-22.773-19.462-41.04-42.091-43.08z" fill="#f48875"/></g></g><g><g><path d="m116.018 172.163c0-9.831 6.949-18.035 16.202-19.98-1.362-.286-2.773-.442-4.22-.442-11.279 0-20.422 9.143-20.422 20.422s9.143 20.422 20.422 20.422c1.447 0 2.858-.156 4.22-.442-9.253-1.944-16.202-10.148-16.202-19.98z" fill="#f43075"/></g></g><g><g><g><path d="m204.377 10.664v28.079h-28.079c0 15.507 12.571 28.079 28.079 28.079s28.079-12.571 28.079-28.079-12.572-28.079-28.079-28.079z" fill="#f46275"/></g></g><g><g><path d="m204.377 10.664v1.293c11.383 3.583 19.639 14.219 19.639 26.786 0 14.073-10.354 25.727-23.859 27.763 1.377.208 2.786.316 4.22.316 15.508 0 28.079-12.572 28.079-28.079 0-15.508-12.572-28.079-28.079-28.079z" fill="#f48875"/></g></g><g><g><path d="m204.377 10.664c-15.507 0-28.079 12.571-28.079 28.079h28.079z" fill="#63bce7"/></g></g></g><g><g><path d="m131.34 75.77c-1.38.22-2.8.33-4.24.33-2.74 0-5.39-.41-7.89-1.18-11.18-3.4-19.37-13.83-19.37-26.08v-7.19s4.07.4 8.44-1.34v8.53c0 12.25 8.19 22.68 19.37 26.08 1.2.37 2.43.65 3.69.85z" fill="#f87023"/></g></g><g><g><path d="m127.1 7.95c-14.99 0-27.26 12.27-27.26 27.27v6.43s10.91 1.07 16.16-7.88h19.86s9.93.86 17.67-5.25c4.7-3.7 8.59-9.98 8.97-20.57h-35.4z" fill="#63bce7"/></g></g><g><g><path d="m131.33 8.29c-13.01 2.03-23.05 13.36-23.05 26.93v5.09c-4.37 1.74-8.44 1.34-8.44 1.34v-6.43c0-15 12.27-27.27 27.26-27.27 1.44 0 2.85.11 4.23.34z" fill="#6377e7"/></g></g><g><g><path d="m135.38 81.97s3.608.525 8.839 2.307l-7.762 13.675-8.982-7.175z" fill="#f46275"/></g></g><g><g><path d="m144.219 84.277c-1.93-.658-3.636-1.143-5.024-1.495l-6.778 11.942 4.041 3.228z" fill="#f48875"/></g></g><g><g><path d="m110.353 84.252s4.717-1.617 8.857-2.282l7.899 8.807-8.98 7.175z" fill="#f46275"/></g></g><g><g><path d="m110.353 84.252 7.776 13.7 4.057-3.241-6.776-11.939c-2.778.7-5.057 1.48-5.057 1.48z" fill="#f43075"/></g></g><g><g><g><path d="m127.105 112.312c2.913 0 5.283-2.371 5.283-5.285s-2.37-5.284-5.283-5.284c-2.914 0-5.285 2.371-5.285 5.284s2.371 5.285 5.285 5.285zm0-7.57c1.259 0 2.283 1.025 2.283 2.284 0 1.26-1.024 2.285-2.283 2.285-1.26 0-2.285-1.025-2.285-2.285 0-1.259 1.026-2.284 2.285-2.284z" fill="#231f20"/></g></g><g><g><path d="m127.105 128.529c2.913 0 5.283-2.371 5.283-5.284 0-2.914-2.37-5.285-5.283-5.285-2.914 0-5.285 2.371-5.285 5.285 0 2.913 2.371 5.284 5.285 5.284zm0-7.569c1.259 0 2.283 1.025 2.283 2.285 0 1.259-1.024 2.284-2.283 2.284-1.26 0-2.285-1.025-2.285-2.284 0-1.26 1.026-2.285 2.285-2.285z" fill="#231f20"/></g></g><g><g><path d="m127.105 144.747c2.913 0 5.283-2.371 5.283-5.285 0-2.913-2.37-5.283-5.283-5.283-2.914 0-5.285 2.37-5.285 5.283s2.371 5.285 5.285 5.285zm0-7.569c1.259 0 2.283 1.024 2.283 2.283 0 1.26-1.024 2.285-2.283 2.285-1.26 0-2.285-1.025-2.285-2.285 0-1.258 1.026-2.283 2.285-2.283z" fill="#231f20"/></g></g><g><g><path d="m204.911 184.523c5.797-3.042 9.766-9.113 9.766-16.101 0-2.135-.389-4.175-1.068-6.08h5.518c.828 0 1.5-.671 1.5-1.5v-9.355c0-.829-.672-1.5-1.5-1.5h-32.327l21.602-53.708c.021-.041.052-.074.069-.117l2.679-6.709c8.292-.566 11.133-7.893 11.458-11.85.034-.418-.107-.831-.392-1.139-.284-.309-.685-.484-1.104-.484h-31.318c-.828 0-1.5.671-1.5 1.5v10.186l-12.948 32.052-5.366-12.798c-5.782-14.451-16.925-21.058-25.254-24.055l-.023-.009c-3.515-1.198-6.297-1.838-7.823-2.141v-4.859c10.126-3.682 17.234-12.545 18.695-23.011.473.088.955.133 1.443.133 4.339 0 7.869-3.53 7.869-7.869s-3.53-7.869-7.869-7.869c-.386 0-.769.035-1.147.09v-2.11c0-2.071-.23-4.135-.672-6.142 5.503-4.72 8.468-11.8 8.801-21.074.015-.407-.137-.802-.42-1.095-.282-.293-.672-.458-1.079-.458h-35.4c-15.858 0-28.76 12.906-28.76 28.77v2.066c-.255-.025-.511-.045-.768-.045-4.339 0-7.869 3.53-7.869 7.869s3.53 7.869 7.869 7.869c.363 0 .723-.034 1.08-.083 1.532 10.498 8.896 19.549 19.058 23.087v4.734c-3.841.753-7.665 2.055-7.843 2.116l-.02.007c-8.356 2.992-19.532 9.599-25.339 24.121l-15.823 43.027h-31.814c-.828 0-1.5.671-1.5 1.5v9.355c0 .829.672 1.5 1.5 1.5h5.518c-.679 1.904-1.068 3.945-1.068 6.08 0 6.989 3.969 13.059 9.766 16.101-16.77 3.678-29.73 18.095-30.911 35.828-.027.414.118.821.401 1.125.284.303.681.475 1.096.475h61.547c-1.496 3.913-2.486 8.075-2.903 12.41h-38.71c-.828 0-1.5.671-1.5 1.5s.672 1.5 1.5 1.5h40.08 92.623 36.156c.828 0 1.5-.671 1.5-1.5s-.672-1.5-1.5-1.5h-34.787c-.417-4.335-1.407-8.497-2.902-12.41h61.547c.415 0 .812-.172 1.096-.475.283-.303.429-.71.401-1.125-1.18-17.735-14.141-32.151-30.911-35.83zm-49.041-135.683v-8.448c.375-.091.757-.151 1.147-.151 2.685 0 4.869 2.184 4.869 4.869s-2.185 4.869-4.869 4.869c-.406 0-.8-.067-1.187-.165.012-.325.04-.647.04-.974zm-58.298 1.139c-2.685 0-4.869-2.184-4.869-4.869s2.185-4.869 4.869-4.869c.259 0 .515.028.768.068v1.341c0 .027.013.051.015.078-.005.049-.015.096-.015.146v6.967c0 .353.031.701.044 1.052-.268.044-.537.086-.812.086zm120.056 103.009v6.355h-5.404c-1.503-2.593-3.625-4.775-6.167-6.355zm-5.95 15.434c0 8.371-6.81 15.181-15.181 15.181s-15.181-6.81-15.181-15.181 6.81-15.181 15.181-15.181 15.181 6.811 15.181 15.181zm-135.062-6.079h31.794c-1.488 2.957-2.332 6.291-2.332 9.82 0 8.758 5.165 16.33 12.607 19.839-9.298 1.848-17.666 6.411-24.22 12.837-5.437-10.44-15.232-17.837-26.539-20.319 5.793-3.043 9.758-9.112 9.758-16.097 0-2.135-.389-4.176-1.068-6.08zm32.462 9.82c0-10.433 8.488-18.921 18.922-18.921s18.922 8.488 18.922 18.921c0 10.434-8.488 18.922-18.922 18.922s-18.922-8.488-18.922-18.922zm40.844 0c0-3.53-.844-6.864-2.332-9.82h31.794c-.679 1.904-1.068 3.945-1.068 6.08 0 6.986 3.967 13.056 9.761 16.099-11.29 2.488-21.104 9.898-26.537 20.323-6.555-6.428-14.925-10.994-24.225-12.842 7.442-3.51 12.607-11.082 12.607-19.84zm37.014-19.175c-2.541 1.58-4.663 3.762-6.167 6.355h-35.004c-1.887-2.607-4.33-4.785-7.157-6.355h29.021.003.002 16.946zm4.359-74.008h28.024c-.672 2.637-2.782 7.528-9.188 7.528h-.019-18.817zm-.509 10.529h17.106l-1.849 4.598h-17.114zm-48.779-4.375-5.987 10.549-6.367-5.087 6.287-7.006c1.092.208 3.261.674 6.067 1.544zm-14.714 3.601-6.583-7.339v-4.524c2.084.481 4.224.728 6.39.728 2.303 0 4.575-.278 6.78-.815v4.611zm-25.953-53.515c0-14.209 11.556-25.77 25.76-25.77h33.817c-.578 7.987-3.372 14-8.316 17.893-7.157 5.651-16.52 4.941-16.61 4.933-.044-.003-.087-.005-.13-.005h-19.861c-.532 0-1.024.282-1.294.741-3.698 6.305-10.475 7.133-13.366 7.183zm0 13.62v-5.651c3.34-.054 10.957-.983 15.495-7.919h18.966c.923.071 9.278.53 16.725-4.216.226 1.372.344 2.767.344 4.166v13.62c0 11.228-7.213 21.09-17.95 24.542-4.893 1.576-10.34 1.623-15.273.103-10.779-3.278-18.307-13.413-18.307-24.645zm17.308 34.75 6.284 7.006-6.367 5.087-5.995-10.563c1.527-.463 3.848-1.114 6.078-1.53zm-31.338 24.445c4.165-10.415 11.688-17.788 22.37-21.931l7.145 12.588c.217.382.59.65 1.021.733.43.084.876-.026 1.22-.301l8.228-6.573 8.229 6.573c.344.274.786.383 1.221.301.431-.083.804-.351 1.021-.733l7.129-12.562c10.646 4.149 18.146 11.514 22.312 21.927l6.784 16.182c.235.56.771.956 1.394.92.608-.004 1.153-.375 1.381-.938l10.954-27.115h17.12l-21.27 52.881h-14.912l-10.449-26.535c-.304-.771-1.176-1.149-1.945-.846-.771.303-1.149 1.174-.846 1.945l10.016 25.436h-76.6l10.016-25.436c.304-.771-.075-1.642-.846-1.945-.769-.304-1.642.074-1.945.846l-10.449 26.535h-13.727zm-17.578 44.953h16.895.003.003 30.759c-2.827 1.57-5.271 3.748-7.157 6.355h-35.005c-1.503-2.593-3.625-4.775-6.167-6.355zm-31.36 6.355v-6.355h11.57c-2.541 1.58-4.664 3.762-6.167 6.355zm5.95 9.079c0-8.371 6.81-15.181 15.181-15.181s15.181 6.81 15.181 15.181-6.81 15.181-15.181 15.181-15.181-6.81-15.181-15.181zm-21.009 50.529c2.027-18.265 17.623-32.348 36.189-32.348 13.951 0 26.684 8.033 32.754 20.531-3.138 3.51-5.76 7.49-7.764 11.817zm60.007 15.41c2.328-22.712 21.65-40.276 44.68-40.276s42.352 17.564 44.68 40.276zm88.188-15.41c-2.005-4.329-4.629-8.311-7.769-11.822 6.067-12.483 18.851-20.526 32.759-20.526 18.566 0 34.162 14.083 36.189 32.348z" fill="#231f20"/></g></g><g><g><path d="m33.3 235.861c0-.829-.672-1.5-1.5-1.5h-8.344c-.828 0-1.5.671-1.5 1.5s.672 1.5 1.5 1.5h8.344c.828 0 1.5-.672 1.5-1.5z" fill="#231f20"/></g></g><g><g><path d="m227.608 234.361h-8.346c-.828 0-1.5.671-1.5 1.5s.672 1.5 1.5 1.5h8.346c.828 0 1.5-.671 1.5-1.5s-.671-1.5-1.5-1.5z" fill="#231f20"/></g></g><g><g><path d="m200.401 246.55h-148.726c-.828 0-1.5.671-1.5 1.5s.672 1.5 1.5 1.5h148.727c.828 0 1.5-.671 1.5-1.5s-.673-1.5-1.501-1.5z" fill="#231f20"/></g></g><g><g><path d="m42.665 246.55h-8.344c-.828 0-1.5.671-1.5 1.5s.672 1.5 1.5 1.5h8.344c.828 0 1.5-.671 1.5-1.5s-.672-1.5-1.5-1.5z" fill="#231f20"/></g></g><g><g><path d="m217.96 246.55h-8.346c-.828 0-1.5.671-1.5 1.5s.672 1.5 1.5 1.5h8.346c.828 0 1.5-.671 1.5-1.5s-.672-1.5-1.5-1.5z" fill="#231f20"/></g></g><g><g><path d="m204.377 68.321c16.31 0 29.579-13.269 29.579-29.579s-13.27-29.579-29.579-29.579-29.579 13.269-29.579 29.579 13.269 29.579 29.579 29.579zm-1.5-56.115v25.037h-25.037c.753-13.464 11.573-24.285 25.037-25.037zm1.5 28.037c.828 0 1.5-.671 1.5-1.5v-26.537c13.96.781 25.079 12.385 25.079 26.537 0 14.655-11.923 26.579-26.579 26.579-14.152 0-25.757-11.119-26.537-25.079z" fill="#231f20"/></g></g><g><g><path d="m129.5 58.641c-.828 0-1.5.671-1.5 1.5s.672 1.5 1.5 1.5c2.254 0 4.087-1.833 4.087-4.085 0-1.723-1.075-3.192-2.587-3.792v-4.262c0-.829-.672-1.5-1.5-1.5s-1.5.671-1.5 1.5v5.476c0 .829.672 1.5 1.5 1.5.008 0 .015-.002.023-.002.589.013 1.064.49 1.064 1.081 0 .597-.487 1.084-1.087 1.084z" fill="#231f20"/></g></g><g><g><path d="m122.4 61.244c-.828 0-1.5.671-1.5 1.5 0 1.579.614 3.064 1.731 4.184 1.154 1.153 2.669 1.729 4.185 1.729 1.515 0 3.03-.576 4.184-1.729.586-.586.586-1.536 0-2.122s-1.535-.585-2.121 0c-1.136 1.137-2.987 1.138-4.125.001-.55-.552-.854-1.285-.854-2.063 0-.829-.671-1.5-1.5-1.5z" fill="#231f20"/></g></g><g><g><path d="m121.933 48.19v-2.174c0-.854-.693-1.548-1.548-1.548-.854 0-1.547.694-1.547 1.548v2.174c0 .855.693 1.549 1.547 1.549.856 0 1.548-.694 1.548-1.549z" fill="#231f20"/></g></g><g><g><path d="m138.474 44.468c-.854 0-1.547.694-1.547 1.548v2.174c0 .855.693 1.549 1.547 1.549.855 0 1.549-.694 1.549-1.549v-2.174c0-.854-.694-1.548-1.549-1.548z" fill="#231f20"/></g></g><g><g><path d="m121.745 42.106c.669.489 1.606.344 2.097-.325.489-.669.344-1.607-.325-2.096-1.556-1.139-3.413-1.583-5.225-1.251-1.688.308-3.165 1.263-4.051 2.619-.453.694-.258 1.624.436 2.076.253.166.538.244.819.244.489 0 .969-.239 1.257-.68.432-.661 1.208-1.15 2.077-1.308.995-.181 2.031.075 2.915.721z" fill="#231f20"/></g></g><g><g><path d="m131.9 43.129c.253.165.537.244.819.244.489 0 .969-.239 1.257-.679.432-.661 1.209-1.15 2.078-1.309.995-.184 2.03.074 2.915.72.669.489 1.606.344 2.097-.325.489-.669.344-1.607-.325-2.096-1.555-1.139-3.418-1.583-5.224-1.251-1.689.308-3.166 1.262-4.053 2.619-.452.695-.257 1.624.436 2.077z" fill="#231f20"/></g></g></g></g></svg>