<svg xmlns="http://www.w3.org/2000/svg" enable-background="new 0 0 1000 1000" viewBox="0 0 1000 1000"><rect width="1000" height="1000" fill="#eaecef"/><path fill="#c9c9c9" d="M789.493,666.303H169.161c-4.971,0-9-4.029-9-9v0c0-4.971,4.029-9,9-9h620.332
		c4.971,0,9,4.029,9,9v0C798.493,662.273,794.463,666.303,789.493,666.303z"/><path fill="#cecece" d="M285.891,573.289c-9.563,0-17.342-7.78-17.342-17.343s7.78-17.342,17.342-17.342
				h98.034v34.685H285.891z"/><path fill="#fff" d="M389.603,579.289H285.891c-12.892,0-23.342-10.451-23.342-23.342l0,0
				c0-12.892,10.451-23.342,23.342-23.342h103.712V579.289z"/><line x1="279.549" x2="383.925" y1="550.567" y2="550.567" fill="none" stroke="#1f3969" stroke-linecap="round" stroke-linejoin="round" stroke-miterlimit="10" stroke-width="4"/><line x1="279.549" x2="383.925" y1="561.158" y2="561.158" fill="none" stroke="#1f3969" stroke-linecap="round" stroke-linejoin="round" stroke-miterlimit="10" stroke-width="4"/><path fill="none" stroke="#1f3969" stroke-linecap="round" stroke-linejoin="round" stroke-miterlimit="10" stroke-width="4" d="
				M285.891,573.289c-9.563,0-17.342-7.78-17.342-17.343s7.78-17.342,17.342-17.342h98.034v34.685H285.891z"/><path fill="#ff3e3e" d="M285.891,573.289c-9.563,0-17.342-7.78-17.342-17.343s7.78-17.342,17.342-17.342
				h99.712l4-6H285.891c-12.892,0-23.342,10.451-23.342,23.342v0c0,12.892,10.451,23.342,23.342,23.342h103.712l-4-6H285.891z"/><path fill="none" stroke="#1f3969" stroke-linecap="round" stroke-linejoin="round" stroke-miterlimit="10" stroke-width="4" d="
				M285.891,573.289c-9.563,0-17.342-7.78-17.342-17.343s7.78-17.342,17.342-17.342h99.712l4-6H285.891
				c-12.892,0-23.342,10.451-23.342,23.342v0c0,12.892,10.451,23.342,23.342,23.342h103.712l-4-6H285.891z"/><rect width="18.391" height="46.685" x="348.914" y="532.604" fill="#1f3969" stroke="#1f3969" stroke-linecap="round" stroke-linejoin="round" stroke-miterlimit="10" stroke-width="4" opacity=".28"/><path fill="#50b56f" d="M378.935,617.846H189.032c-3.734,0-6.761-3.027-6.761-6.761V586.05
				c0-3.734,3.027-6.761,6.761-6.761h189.903c3.734,0,6.761,3.027,6.761,6.761v25.034
				C385.696,614.819,382.669,617.846,378.935,617.846z"/><path fill="#fff" d="M240.281 599.753h-2.552v5.541h-1.733v-13.273h4.285c3.123 0 4.589 1.715 4.589 3.885C244.87 597.925 243.575 599.753 240.281 599.753zM240.281 598.324c1.98 0 2.818-.933 2.818-2.419 0-1.542-.838-2.456-2.818-2.456h-2.552v4.875H240.281zM249.729 592.021h1.923l3.275 6.723 3.275-6.723h1.923l-4.323 8.266v5.008h-1.733v-5.008L249.729 592.021zM264.946 592.021h8.988v1.41h-3.618v11.863h-1.733v-11.863h-3.637V592.021zM288.371 599.276h-6.76v6.018h-1.733v-13.273h1.733v5.828h6.76v-5.828h1.733v13.273h-1.733V599.276zM302.865 605.427c-3.732 0-6.665-2.799-6.665-6.779 0-3.979 2.933-6.779 6.665-6.779 3.751 0 6.665 2.8 6.665 6.779C309.53 602.628 306.617 605.427 302.865 605.427zM302.865 603.923c2.799 0 4.894-2.037 4.894-5.275 0-3.256-2.095-5.274-4.894-5.274s-4.894 2.019-4.894 5.274C297.971 601.886 300.066 603.923 302.865 603.923zM326.063 592.002v13.292h-1.733l-6.97-10.568v10.568h-1.733v-13.292h1.733l6.97 10.55v-10.55H326.063z"/><path fill="none" stroke="#1f3969" stroke-linecap="round" stroke-linejoin="round" stroke-miterlimit="10" stroke-width="4" d="
				M378.935,617.846H189.032c-3.734,0-6.761-3.027-6.761-6.761V586.05c0-3.734,3.027-6.761,6.761-6.761h189.903
				c3.734,0,6.761,3.027,6.761,6.761v25.034C385.696,614.819,382.669,617.846,378.935,617.846z"/><path fill="#1f3969" stroke="#1f3969" stroke-linecap="round" stroke-linejoin="round" stroke-miterlimit="10" stroke-width="4" d="
			M378.935,579.289h-30.021v14.996c0,9.423,7.639,17.061,17.061,17.061h19.708c0.003-0.088,0.013-0.173,0.013-0.262V586.05
			C385.696,582.316,382.669,579.289,378.935,579.289z" opacity=".28"/><path fill="#cecece" d="M432.39,625.587H212.442c1.282,3.25,2.031,7.155,2.031,11.358
			c0,4.203-0.749,8.108-2.031,11.358H432.39c-1.282-3.25-2.031-7.155-2.031-11.358C430.36,632.742,431.108,628.837,432.39,625.587z"/><rect width="231.87" height="6.044" x="206.485" y="619.543" fill="#5f5aff"/><rect width="231.87" height="6.044" x="206.485" y="619.543" fill="none" stroke="#1f3969" stroke-linecap="round" stroke-linejoin="round" stroke-miterlimit="10" stroke-width="4"/><rect width="231.87" height="6.044" x="206.485" y="648.303" fill="#f6f9fd"/><rect width="231.87" height="6.044" x="206.485" y="648.303" fill="#5f5aff"/><rect width="231.87" height="6.044" x="206.485" y="648.303" fill="none" stroke="#1f3969" stroke-linecap="round" stroke-linejoin="round" stroke-miterlimit="10" stroke-width="4"/><path fill="#bfcfe2" d="M553.631,632.998l-3.014-33.652H501.21l-3.014,33.652
			c-0.7,7.816-5.404,15.305-12.777,21.276l-0.009,0.072h81.007l-0.009-0.072C559.035,648.303,554.331,640.814,553.631,632.998z"/><polygon fill="#1f3969" stroke="#1f3969" stroke-linecap="round" stroke-linejoin="round" stroke-miterlimit="10" stroke-width="4" points="501.21 599.346 499.401 619.543 552.426 619.543 550.618 599.346" opacity=".28"/><path fill="none" stroke="#1f3969" stroke-linecap="round" stroke-linejoin="round" stroke-miterlimit="10" stroke-width="4" d="
			M553.631,632.998l-3.014-33.652H501.21l-3.014,33.652c-0.7,7.816-5.404,15.305-12.777,21.276l-0.009,0.072h81.007l-0.009-0.072
			C559.035,648.303,554.331,640.814,553.631,632.998z"/><path fill="#fff" d="M683.914,604.346h-316c-6.627,0-12-5.373-12-12v-206c0-6.627,5.373-12,12-12h316
			c6.627,0,12,5.373,12,12v206C695.914,598.974,690.541,604.346,683.914,604.346z"/><path fill="#bfcfe2" d="M683.914,604.346h-316c-6.627,0-12-5.373-12-12v-206c0-6.627,5.373-12,12-12h316
			c6.627,0,12,5.373,12,12v206C695.914,598.974,690.541,604.346,683.914,604.346z"/><path fill="none" stroke="#1f3969" stroke-linecap="round" stroke-linejoin="round" stroke-miterlimit="10" stroke-width="4" d="
			M683.914,604.346h-316c-6.627,0-12-5.373-12-12v-206c0-6.627,5.373-12,12-12h316c6.627,0,12,5.373,12,12v206
			C695.914,598.974,690.541,604.346,683.914,604.346z"/><rect width="174.591" height="306" x="438.618" y="325.642" fill="#f6f9fd" transform="rotate(90 525.914 478.642)"/><path fill="#1f3969" stroke="#1f3969" stroke-linecap="round" stroke-linejoin="round" stroke-miterlimit="10" stroke-width="4" d="
			M383.928,374.346v138.593c0,4.418,3.582,8,8,8h189.073c4.418,0,8-3.582,8-8V374.346H383.928z" opacity=".28"/><rect width="174.591" height="306" x="438.618" y="325.642" fill="none" stroke="#1f3969" stroke-linecap="round" stroke-linejoin="round" stroke-miterlimit="10" stroke-width="4" transform="rotate(90 525.914 478.642)"/><line x1="512.468" x2="539.36" y1="585.048" y2="585.048" fill="none" stroke="#1f3969" stroke-linecap="round" stroke-linejoin="round" stroke-miterlimit="10" stroke-width="4"/><path fill="#2d425e" d="M590.001,509.939H400.928c-4.418,0-8-3.582-8-8V353.654c0-4.418,3.582-8,8-8
			h189.072c4.418,0,8,3.582,8,8v148.286C598.001,506.358,594.419,509.939,590.001,509.939z"/><path fill="none" stroke="#1f3969" stroke-linecap="round" stroke-linejoin="round" stroke-miterlimit="10" stroke-width="4" d="
			M598.001,365.108H392.928v-11.454c0-4.418,3.582-8,8-8h189.072c4.418,0,8,3.582,8,8V365.108z"/><path fill="#d0ddf0" d="M598.001,368.918H392.928v-15.264c0-4.418,3.582-8,8-8h189.072c4.418,0,8,3.582,8,8
			V368.918z"/><path fill="none" stroke="#1f3969" stroke-linecap="round" stroke-linejoin="round" stroke-miterlimit="10" stroke-width="4" d="
			M598.001,368.918H392.928v-15.264c0-4.418,3.582-8,8-8h189.072c4.418,0,8,3.582,8,8V368.918z"/><path fill="none" stroke="#1f3969" stroke-linecap="round" stroke-linejoin="round" stroke-miterlimit="10" stroke-width="4" d="
			M598.001,368.918H392.928v-15.264c0-4.418,3.582-8,8-8h189.072c4.418,0,8,3.582,8,8V368.918z"/><path fill="none" stroke="#1f3969" stroke-linecap="round" stroke-linejoin="round" stroke-miterlimit="10" stroke-width="4" d="
			M590.001,509.939H400.928c-4.418,0-8-3.582-8-8V353.654c0-4.418,3.582-8,8-8h189.072c4.418,0,8,3.582,8,8v148.286
			C598.001,506.358,594.419,509.939,590.001,509.939z"/><path fill="#1f3969" stroke="#1f3969" stroke-linecap="round" stroke-linejoin="round" stroke-miterlimit="10" stroke-width="4" d="
				M688.689,545.345H572.673c-4.418,0-8-3.582-8-8V414.4c0-4.418,3.582-8,8-8h116.016c4.418,0,8,3.582,8,8v122.945
				C696.689,541.764,693.108,545.345,688.689,545.345z" opacity=".28"/><path fill="#2aa1ff" d="M696.689,538.345H580.673c-4.418,0-8-3.582-8-8V407.4c0-4.418,3.582-8,8-8h116.016
				c4.418,0,8,3.582,8,8v122.945C704.689,534.764,701.108,538.345,696.689,538.345z"/><path fill="none" stroke="#1f3969" stroke-linecap="round" stroke-linejoin="round" stroke-miterlimit="10" stroke-width="4" d="
				M696.689,538.345H580.673c-4.418,0-8-3.582-8-8V407.4c0-4.418,3.582-8,8-8h116.016c4.418,0,8,3.582,8,8v122.945
				C704.689,534.764,701.108,538.345,696.689,538.345z"/><path fill="none" stroke="#fff" stroke-linecap="round" stroke-linejoin="round" stroke-miterlimit="10" stroke-width="2" d="
				M679.426,437.473h-81.569c-2.854,0-5.167-2.313-5.167-5.167v-7.8c0-2.854,2.313-5.167,5.167-5.167h81.569
				c2.854,0,5.167,2.313,5.167,5.167v7.8C684.593,435.16,682.279,437.473,679.426,437.473z" opacity=".34"/><g opacity=".34"><path fill="none" stroke="#fff" stroke-linecap="round" stroke-linejoin="round" stroke-miterlimit="10" stroke-width="2" d="M643.58 466.78h-45.643c-2.854 0-5.167-2.313-5.167-5.167v-7.8c0-2.854 2.313-5.167 5.167-5.167h45.643c2.854 0 5.167 2.313 5.167 5.167v7.8C648.747 464.467 646.434 466.78 643.58 466.78zM679.506 466.78h-17.655c-2.854 0-5.167-2.313-5.167-5.167v-7.8c0-2.854 2.313-5.167 5.167-5.167h17.655c2.854 0 5.167 2.313 5.167 5.167v7.8C684.673 464.467 682.359 466.78 679.506 466.78z"/></g><line x1="592.69" x2="684.593" y1="497.23" y2="497.23" fill="none" stroke="#fff" stroke-linecap="round" stroke-linejoin="round" stroke-miterlimit="10" stroke-width="2"/><line x1="592.69" x2="684.593" y1="508.021" y2="508.021" fill="none" stroke="#fff" stroke-linecap="round" stroke-linejoin="round" stroke-miterlimit="10" stroke-width="2"/><line x1="592.69" x2="648.667" y1="518.811" y2="518.811" fill="none" stroke="#fff" stroke-linecap="round" stroke-linejoin="round" stroke-miterlimit="10" stroke-width="2"/><circle cx="413" cy="357.286" r="4" fill="#1f3969"/><circle cx="426.886" cy="357.286" r="4" fill="#1f3969"/><circle cx="440.772" cy="357.286" r="4" fill="#1f3969"/><g><line x1="510.741" x2="523.669" y1="387.379" y2="387.379" fill="none" stroke="#fff" stroke-linecap="round" stroke-linejoin="round" stroke-miterlimit="10" stroke-width="4"/><line x1="444.772" x2="501.148" y1="387.379" y2="387.379" fill="none" stroke="#7bffa0" stroke-linecap="round" stroke-linejoin="round" stroke-miterlimit="10" stroke-width="4"/><line x1="417" x2="436.772" y1="387.379" y2="387.379" fill="none" stroke="#9169ff" stroke-linecap="round" stroke-linejoin="round" stroke-miterlimit="10" stroke-width="4"/></g><g><line x1="442.772" x2="485.83" y1="485.938" y2="485.938" fill="none" stroke="#9169ff" stroke-linecap="round" stroke-linejoin="round" stroke-miterlimit="10" stroke-width="4"/><line x1="417" x2="430.885" y1="485.938" y2="485.938" fill="none" stroke="#7bffa0" stroke-linecap="round" stroke-linejoin="round" stroke-miterlimit="10" stroke-width="4"/></g><g><line x1="501.149" x2="509.164" y1="399.699" y2="399.699" fill="none" stroke="#fff" stroke-linecap="round" stroke-linejoin="round" stroke-miterlimit="10" stroke-width="4"/><line x1="464.279" x2="491.506" y1="399.699" y2="399.699" fill="none" stroke="#9169ff" stroke-linecap="round" stroke-linejoin="round" stroke-miterlimit="10" stroke-width="4"/><line x1="426.886" x2="454.63" y1="399.699" y2="399.699" fill="none" stroke="#ffc47d" stroke-linecap="round" stroke-linejoin="round" stroke-miterlimit="10" stroke-width="4"/></g><g><line x1="469.83" x2="493.668" y1="412.019" y2="412.019" fill="none" stroke="#fff" stroke-linecap="round" stroke-linejoin="round" stroke-miterlimit="10" stroke-width="4"/><line x1="439.769" x2="462.251" y1="412.019" y2="412.019" fill="none" stroke="#ff5757" stroke-linecap="round" stroke-linejoin="round" stroke-miterlimit="10" stroke-width="4"/></g><g><line x1="473.009" x2="477.947" y1="424.339" y2="424.339" fill="none" stroke="#fff" stroke-linecap="round" stroke-linejoin="round" stroke-miterlimit="10" stroke-width="4"/><line x1="453.189" x2="464.279" y1="424.339" y2="424.339" fill="none" stroke="#9169ff" stroke-linecap="round" stroke-linejoin="round" stroke-miterlimit="10" stroke-width="4"/><line x1="426.886" x2="444.772" y1="424.339" y2="424.339" fill="none" stroke="#7bffa0" stroke-linecap="round" stroke-linejoin="round" stroke-miterlimit="10" stroke-width="4"/></g><g><line x1="465.288" x2="497.182" y1="436.659" y2="436.659" fill="none" stroke="#ffc47d" stroke-linecap="round" stroke-linejoin="round" stroke-miterlimit="10" stroke-width="4"/><line x1="426.886" x2="455.513" y1="436.659" y2="436.659" fill="none" stroke="#ff5757" stroke-linecap="round" stroke-linejoin="round" stroke-miterlimit="10" stroke-width="4"/></g><g><line x1="502.182" x2="519.525" y1="448.979" y2="448.979" fill="none" stroke="#9169ff" stroke-linecap="round" stroke-linejoin="round" stroke-miterlimit="10" stroke-width="4"/><line x1="465.288" x2="493.037" y1="448.979" y2="448.979" fill="none" stroke="#ff5757" stroke-linecap="round" stroke-linejoin="round" stroke-miterlimit="10" stroke-width="4"/><line x1="439.769" x2="455.513" y1="448.979" y2="448.979" fill="none" stroke="#7bffa0" stroke-linecap="round" stroke-linejoin="round" stroke-miterlimit="10" stroke-width="4"/></g><g><line x1="477.893" x2="493.037" y1="461.299" y2="461.299" fill="none" stroke="#fff" stroke-linecap="round" stroke-linejoin="round" stroke-miterlimit="10" stroke-width="4"/><line x1="439.769" x2="467.513" y1="461.299" y2="461.299" fill="none" stroke="#9169ff" stroke-linecap="round" stroke-linejoin="round" stroke-miterlimit="10" stroke-width="4"/></g><g><line x1="517.205" x2="534.497" y1="473.618" y2="473.618" fill="none" stroke="#fff" stroke-linecap="round" stroke-linejoin="round" stroke-miterlimit="10" stroke-width="4"/><line x1="464.279" x2="507.848" y1="473.618" y2="473.618" fill="none" stroke="#ffc47d" stroke-linecap="round" stroke-linejoin="round" stroke-miterlimit="10" stroke-width="4"/><line x1="426.886" x2="454.63" y1="473.618" y2="473.618" fill="none" stroke="#fff" stroke-linecap="round" stroke-linejoin="round" stroke-miterlimit="10" stroke-width="4"/></g><line x1="214.895" x2="430.36" y1="632.523" y2="632.523" fill="none" stroke="#1f3969" stroke-linecap="round" stroke-linejoin="round" stroke-miterlimit="10" stroke-width="4"/><line x1="214.895" x2="430.36" y1="640.539" y2="640.539" fill="none" stroke="#1f3969" stroke-linecap="round" stroke-linejoin="round" stroke-miterlimit="10" stroke-width="4"/><path fill="none" stroke="#1f3969" stroke-linecap="round" stroke-linejoin="round" stroke-miterlimit="10" stroke-width="4" d="
			M432.39,625.587H212.442c1.282,3.25,2.031,7.155,2.031,11.358c0,4.203-0.749,8.108-2.031,11.358H432.39
			c-1.282-3.25-2.031-7.155-2.031-11.358C430.36,632.742,431.108,628.837,432.39,625.587z"/><g><rect width="9.814" height="72.65" x="722.76" y="544.444" fill="#ffa364" transform="rotate(-6.686 727.67 580.567)"/><rect width="9.814" height="7.39" x="718.956" y="544.666" fill="#2aa1ff" transform="rotate(-6.686 723.86 548.164)"/><rect width="9.814" height="7.39" x="718.956" y="544.666" fill="none" stroke="#1f3969" stroke-linecap="round" stroke-linejoin="round" stroke-miterlimit="10" stroke-width="4" transform="rotate(-6.686 723.86 548.164)"/><rect width="9.814" height="72.65" x="722.76" y="544.444" fill="none" stroke="#1f3969" stroke-linecap="round" stroke-linejoin="round" stroke-miterlimit="10" stroke-width="4" transform="rotate(-6.686 727.67 580.567)"/><rect width="9.814" height="72.65" x="741.439" y="558.065" fill="#ff5252" transform="rotate(6.206 746.096 594.165)"/><rect width="9.814" height="72.65" x="741.439" y="558.065" fill="none" stroke="#1f3969" stroke-linecap="round" stroke-linejoin="round" stroke-miterlimit="10" stroke-width="4" transform="rotate(6.206 746.096 594.165)"/><rect width="9.814" height="7.39" x="744.965" y="558.256" fill="#2d425e" transform="rotate(6.206 749.62 561.737)"/><rect width="9.814" height="7.39" x="744.965" y="558.256" fill="none" stroke="#1f3969" stroke-linecap="round" stroke-linejoin="round" stroke-miterlimit="10" stroke-width="4" transform="rotate(6.206 749.62 561.737)"/><polygon fill="#6567c3" points="761.07 654.573 721.809 654.573 715.424 594.39 767.455 594.39"/><polygon fill="#6567c3" points="715.424 594.39 715.541 595.495 755.182 595.495 748.915 654.573 761.07 654.573 767.455 594.39"/><polygon fill="none" stroke="#1f3969" stroke-linecap="round" stroke-linejoin="round" stroke-miterlimit="10" stroke-width="4" points="761.07 654.573 721.809 654.573 715.424 594.39 767.455 594.39"/></g></svg>