<svg height="512" viewBox="0 0 512 512" width="512" xmlns="http://www.w3.org/2000/svg"><g id="Filled_outline" data-name="Filled outline"><path d="m360 424h-208v-144a32 32 0 0 1 32-32h144a32 32 0 0 1 32 32z" fill="#395d7b"/><path d="m208 248h96v88h-96z" fill="#fdb683"/><path d="m360 488h-208v-208h56l.155.777a48.794 48.794 0 0 0 47.845 39.223 48.794 48.794 0 0 0 47.845-39.223l.155-.777h56z" fill="#fff"/><path d="m360 488h-208v-208h56l.155.777a48.794 48.794 0 0 0 47.845 39.223 48.794 48.794 0 0 0 47.845-39.223l.155-.777h56z" fill="#de5540"/><path d="m152 280h48v208h-48z" fill="#426887"/><path d="m152 344v-64a64 64 0 0 0 -51.2 25.6l-64.8 86.4a60 60 0 0 0 -12 36 60 60 0 0 0 60 60h44v-64h-40z" fill="#de5540"/><path d="m312 280h48v208h-48z" fill="#426887" transform="matrix(-1 0 0 -1 672 768)"/><path d="m192 488h-64v-64l2.94-8.821a22.2 22.2 0 0 1 21.06-15.179v24h40a16 16 0 0 1 16 16v32a16 16 0 0 1 -16 16z" fill="#fdc8a2"/><path d="m320 488h64v-64l-2.94-8.821a22.2 22.2 0 0 0 -21.06-15.179v24h-40a16 16 0 0 0 -16 16v32a16 16 0 0 0 16 16z" fill="#fdc8a2"/><path d="m360 344v-64a64 64 0 0 1 51.2 25.6l64.8 86.4a60 60 0 0 1 12 36 60 60 0 0 1 -60 60h-44v-64h40z" fill="#de5540"/><path d="m216 56h80a48 48 0 0 1 48 48v88a88 88 0 0 1 -88 88 88 88 0 0 1 -88-88v-88a48 48 0 0 1 48-48z" fill="#fdc8a2"/><path d="m168 152 6.782-2.713a94.1 94.1 0 0 0 49.218-45.287v-56h-8a48 48 0 0 0 -48 48z" fill="#784533"/><path d="m344 96v56a100.559 100.559 0 0 1 -56-56v-48h8a48 48 0 0 1 48 48z" fill="#784533"/><g fill="#844e3a"><circle cx="216" cy="168" r="16"/><circle cx="296" cy="168" r="16"/><path d="m288 48v48a190.267 190.267 0 0 1 -50.48 23.83 190.5 190.5 0 0 1 -55.21 8.17h-30.31v-24a80.452 80.452 0 0 1 .79-11.26 79.658 79.658 0 0 1 12.25-32.52 79.913 79.913 0 0 1 66.96-36.22h22.7a35.1 35.1 0 0 1 33.3 24z"/></g><path d="m160 152h8a0 0 0 0 1 0 0v48a0 0 0 0 1 0 0h-8a24 24 0 0 1 -24-24 24 24 0 0 1 24-24z" fill="#fdb683"/><path d="m368 152h8a0 0 0 0 1 0 0v48a0 0 0 0 1 0 0h-8a24 24 0 0 1 -24-24 24 24 0 0 1 24-24z" fill="#fdb683" transform="matrix(-1 0 0 -1 720 352)"/><path d="m286.69 336.828 7.09 14.344a85.712 85.712 0 0 1 -37.78 8.828 84.666 84.666 0 0 1 -35.313-7.658l6.626-14.563a68.793 68.793 0 0 0 28.687 6.221 69.608 69.608 0 0 0 30.69-7.172zm-30.69-112.77a48.415 48.415 0 0 0 28.733-9.609l-9.466-12.9a32.031 32.031 0 0 1 -38.534 0l-9.466 12.9a48.415 48.415 0 0 0 28.733 9.609zm-40-40.058a16 16 0 1 0 -16-16 16.019 16.019 0 0 0 16 16zm80 0a16 16 0 1 0 -16-16 16.019 16.019 0 0 0 16 16zm190.2 208.836a68 68 0 0 1 -58.2 103.164h-344a68 68 0 0 1 -54.4-108.8l46.44-61.92 12.8 9.6-46.44 61.92a52 52 0 0 0 41.6 83.2h36v-48h-32a8 8 0 0 1 -6.247-13l62.247-77.807v-52.611a56.311 56.311 0 0 0 -36.8 21.818l-10.319 13.76-12.8-9.6 10.319-13.76a72.4 72.4 0 0 1 50.326-28.418 40.028 40.028 0 0 1 28.958-31.037 95.335 95.335 0 0 1 -12.343-33.345h-1.341a32 32 0 0 1 0-64v-8h-8a8 8 0 0 1 -8-8v-24a87.855 87.855 0 0 1 31.4-67.382l10.3 12.246a72.379 72.379 0 0 0 -10.042 10.336 305.167 305.167 0 0 0 56.742-17.5 7.8 7.8 0 0 1 .788-.3l2.512 7.75 3.182 7.172c-.36.16-35.124 15.437-73.73 20.9a71.78 71.78 0 0 0 -4.184 14.966c2.052-.179 4.092-.378 6.1-.613 6.9-.788 13.849-1.929 20.681-3.395a218.076 218.076 0 0 0 50.644-17.58 142.592 142.592 0 0 0 18.56-10.736l9.447 12.921c-1.175.861-29.318 21.194-75.292 31.037-7.334 1.574-14.8 2.8-22.2 3.646-2.922.341-5.9.623-8.908.853v11.679h22.312a181.928 181.928 0 0 0 97.688-28.34v-42.276a27.061 27.061 0 0 0 -25.3-17.384h-22.7a71.947 71.947 0 0 0 -35.994 9.628l-8.012-13.85a87.972 87.972 0 0 1 44.006-11.778h22.7a43.032 43.032 0 0 1 38.631 24h2.669a56.063 56.063 0 0 1 56 56v48a32 32 0 0 1 0 64h-1.341a95.336 95.336 0 0 1 -12.348 33.354 40.123 40.123 0 0 1 28.952 31.026 72.4 72.4 0 0 1 50.337 28.42l59.4 79.2-12.8 9.6-59.4-79.2a56.311 56.311 0 0 0 -36.8-21.818v52.611l62.247 77.807a8 8 0 0 1 -6.247 13h-32v48h36a52 52 0 0 0 44.508-78.891zm-134.2-200.836a16 16 0 0 0 0-32zm-192-32a16 16 0 0 0 0 32zm168 96h-.512a96.8 96.8 0 0 1 -15.488 13.927v2.073h38.624a24.039 24.039 0 0 0 -22.624-16zm-8 32v128h32v-128zm-24-193.574a93.031 93.031 0 0 0 40 44.886v-16.839c-14.855-21.238-36.223-35.673-36.443-35.821l8.881-13.308a174.7 174.7 0 0 1 27.562 23.907v-1.251a40.045 40.045 0 0 0 -40-40zm-120 45.627a86.184 86.184 0 0 0 7.69-4.066c-.46 0-.919.013-1.378.013h-6.312zm0 51.947a80 80 0 0 0 160 0v-34.736a109.156 109.156 0 0 1 -51.483-49.6 197.669 197.669 0 0 1 -72.107 26.051 102.749 102.749 0 0 1 -34.658 23l-1.752.7zm80 96a95.43 95.43 0 0 1 -39.981-8.732 40.785 40.785 0 0 0 79.963 0 95.419 95.419 0 0 1 -39.982 8.732zm-96 128h32v-128h-32zm-16-22.9v-26.294l-39.355 49.194h17.588l1.118-3.352a30.141 30.141 0 0 1 20.649-19.548zm56 46.9a8.009 8.009 0 0 0 -8-8h-40a8 8 0 0 1 -8-8v-13.537a14.18 14.18 0 0 0 -5.47 7.246l-2.53 7.591v54.7h56a8.009 8.009 0 0 0 8-8zm0-170.073a96.8 96.8 0 0 1 -15.488-13.927h-.512a24.026 24.026 0 0 0 -22.64 16h38.64zm104 31.6a56.738 56.738 0 0 1 -96-.029v120.633a23.943 23.943 0 0 1 8 17.869v32a23.889 23.889 0 0 1 -1.376 8h82.752a23.889 23.889 0 0 1 -1.376-8v-32a23.943 23.943 0 0 1 8-17.869zm72 123.773-2.53-7.589a14.18 14.18 0 0 0 -5.47-7.246v13.535a8 8 0 0 1 -8 8h-40a8.009 8.009 0 0 0 -8 8v32a8.009 8.009 0 0 0 8 8h56zm13.767-9.3h17.588l-39.355-49.194v26.294a30.141 30.141 0 0 1 20.649 19.553z"/></g></svg>